<svg xmlns="http://www.w3.org/2000/svg" xmlns:xlink="http://www.w3.org/1999/xlink" width="94.359" height="66.209" viewBox="0 0 94.359 66.209">
  <defs>
    <style>
      .cls-1 {
        fill: none;
      }

      .cls-2 {
        clip-path: url(#clip-path);
      }

      .cls-3 {
        fill: #fff;
      }
    </style>
    <clipPath id="clip-path">
      <rect id="Rectangle_693" data-name="Rectangle 693" class="cls-1" width="94.359" height="66.209" transform="translate(578.406 138.817)"/>
    </clipPath>
  </defs>
  <g id="Group_53" data-name="Group 53" class="cls-2" transform="translate(-578.406 -138.817)">
    <path id="Path_94" data-name="Path 94" class="cls-3" d="M603.89,153.873a12.82,12.82,0,0,0-3.9-.662,12.957,12.957,0,0,0-12.954,12.953,12.751,12.751,0,0,0,.709,4.042,18.651,18.651,0,0,0,9.367,34.814v.006l30.221-.006v-66.2a25.843,25.843,0,0,0-23.448,15.055m-3.933,36.948a8.363,8.363,0,0,0,3.95-.923l.386,2.748a11.581,11.581,0,0,1-5.281,1.181c-4.078,0-7.663-2.4-7.663-8.136,0-5.645,4.057-8.35,8.522-8.35a10.068,10.068,0,0,1,4.744,1.073l-.429,2.812a9.825,9.825,0,0,0-4.315-.88c-2.769,0-4.487,2.082-4.487,5.217,0,2.961,1.5,5.258,4.573,5.258m10.927,3.006a9.2,9.2,0,0,1-4.422-1.117l.622-2.747a10.05,10.05,0,0,0,4.036.858c1.76,0,2.533-.794,2.533-1.674,0-.944-.558-1.524-2.727-2.447-2.253-.966-3.863-2-3.863-4.551,0-2.661,2.383-4.808,5.817-4.808a9.4,9.4,0,0,1,4.207.923l-.622,2.64a10.059,10.059,0,0,0-3.22-.558c-1.116,0-2.233.558-2.233,1.438,0,.859.516,1.546,2.4,2.276,2.6,1.009,4.185,2.232,4.185,4.551,0,3.283-2.854,5.216-6.718,5.216"/>
  </g>
</svg>
